<svg id="Layer_1" data-name="Layer 1" xmlns="http://www.w3.org/2000/svg" viewBox="0 0 265.18 137.85"><defs><style>.cls-1{fill:#231f20;}</style></defs><path class="cls-1" d="M88.2,171.45c3.65,1.53,5.49,2.25,9.16,3.62a17.2,17.2,0,0,1-3.49,6.38A12.43,12.43,0,0,1,88.46,185a17.56,17.56,0,0,1-7.88.36,22.17,22.17,0,0,1-9.18-3.25A17,17,0,0,1,65.75,175a20.46,20.46,0,0,1-1.52-11c.6-5.62,2.57-9.55,5.88-11.93S77.8,149,83.27,149.7c4.28.58,7.57,1.76,9.89,3.72A15.75,15.75,0,0,1,98,161.93c-3.81.62-5.72.89-9.54,1.33a8.42,8.42,0,0,0-.84-2.42,6.51,6.51,0,0,0-2-2.13,6.78,6.78,0,0,0-2.82-1,6.07,6.07,0,0,0-5.78,2c-1.09,1.27-1.81,3.43-2.1,6.49-.36,3.79,0,6.51,1,8.12a6.45,6.45,0,0,0,4.74,2.91,5.65,5.65,0,0,0,4.81-1.08A10.19,10.19,0,0,0,88.2,171.45Z" transform="translate(-53.26 -136.08)"/><path class="cls-1" d="M103.31,151.93c4.21.13,6.31.14,10.52.08-.31,4.89-.46,7.33-.76,12.22,4.64,0,7-.12,11.61-.35.25-4.91.38-7.37.63-12.28,4.23-.23,6.34-.39,10.56-.77l-1.5,35.22c-4.35.32-6.53.45-10.88.63l.74-14.19c-4.68.22-7,.29-11.69.31-.35,5.65-.53,8.47-.88,14.12-4.33,0-6.49-.06-10.82-.26Z" transform="translate(-53.26 -136.08)"/><path class="cls-1" d="M164,147.43c4.2-.61,6.3-.93,10.49-1.58l-.2,21.25a19.67,19.67,0,0,1-1,6.11,15.45,15.45,0,0,1-3.08,5.33,14.75,14.75,0,0,1-4.37,3.54,23.14,23.14,0,0,1-7.6,2.15,44,44,0,0,1-5.57.31,13.17,13.17,0,0,1-5-.88,10.37,10.37,0,0,1-3.6-2.67,9.36,9.36,0,0,1-2.15-3.85,20.34,20.34,0,0,1-.78-5.87c.32-8.41.47-12.61.79-21,4.19-.44,6.29-.69,10.49-1.23-.25,8.64-.37,13-.62,21.61a5.5,5.5,0,0,0,1.45,4.34,5.1,5.1,0,0,0,4.34,1.09,6.75,6.75,0,0,0,4.39-2.17,7.12,7.12,0,0,0,1.66-4.78Z" transform="translate(-53.26 -136.08)"/><path class="cls-1" d="M180.54,144.91l10.51-1.67c0,10.81.08,16.21.12,27,6.71-1,10.07-1.47,16.78-2.37.06,3.55.1,5.32.16,8.87-11.09,1.45-16.64,2.3-27.73,3.88Q180.47,162.77,180.54,144.91Z" transform="translate(-53.26 -136.08)"/><path class="cls-1" d="M213.08,139.94c5.53-.77,8.29-1.12,13.82-1.74,2.43,8.59,3.67,12.89,6.18,21.54,1.82-9,2.7-13.55,4.44-22.59,5.53-.46,8.29-.64,13.82-.86q1,18.3,2,36.58c-3.55.09-5.32.16-8.87.35l-1.3-27.81q-2.69,14.13-5.53,28.24c-3.21.23-4.82.37-8,.67-3.12-10.81-4.64-16.19-7.64-26.92l.82,27.6c-3.55.39-5.32.59-8.87,1Z" transform="translate(-53.26 -136.08)"/><path class="cls-1" d="M256.56,136.14c4.22-.08,6.33-.08,10.54,0q1.22,18.42,2.44,36.83c-4.34-.18-6.51-.22-10.85-.2Z" transform="translate(-53.26 -136.08)"/><path class="cls-1" d="M272.81,136.39c3.93.21,5.89.36,9.82.76,5.76,8.74,8.69,13.22,14.63,22.45-.73-8.27-1.1-12.4-1.83-20.67,4,.7,5.95,1.11,9.91,2.06q1.8,18.78,3.59,37.57c-4.08-1-6.12-1.49-10.2-2.28-6-9.21-8.92-13.68-14.72-22.39l1.59,20.37c-4.07-.49-6.11-.67-10.18-.95Z" transform="translate(-53.26 -136.08)"/><path class="cls-1" d="M61.19,190.76a150.54,150.54,0,0,0,24,4.58c-.9,10.62-1.34,15.92-2.24,26.54a189.14,189.14,0,0,0,26.83,1.92c.66-10.75,1-16.13,1.66-26.88,9.65,0,14.47-.19,24.12-.9l-3.19,77.51c-10.27.45-15.4.54-25.66.19q.94-15.53,1.91-31.06a192.28,192.28,0,0,1-27.24-2.15q-1.29,15.35-2.59,30.69a163.63,163.63,0,0,1-25.55-5.63Q57.22,228.16,61.19,190.76Z" transform="translate(-53.26 -136.08)"/><path class="cls-1" d="M200.05,254.26c-9.58,1.06-19.14,2.18-28.72,3.23-1.65,5.35-2.49,8-4.17,13.36-10.44,1.06-15.65,1.55-26.09,2.21q16.86-40.23,31.9-81.17c10.48-1.41,15.72-2.19,26.2-3.61q15.45,38.39,31.91,76.34c-10.7.67-16.05,1.18-26.75,2.27C202.6,261.83,201.74,259.31,200.05,254.26Zm-5.37-16.48q-4.53-13.59-8.91-27.24-4.31,14.72-8.83,29.36Z" transform="translate(-53.26 -136.08)"/><path class="cls-1" d="M236.17,184.21c9-.66,13.46-.88,22.43-.9q16.62,23.34,32.86,46.95-1.8-22.59-3.59-45.19a151,151,0,0,1,22.64,4.4q4,41.34,7.93,82.68a162.76,162.76,0,0,0-24.08-5.4q-16.55-23.7-33.51-47.08l2.55,44.27c-9.61-.27-14.42-.18-24,.24Q237.77,224.19,236.17,184.21Z" transform="translate(-53.26 -136.08)"/></svg>