<svg id="Layer_1" data-name="Layer 1" xmlns="http://www.w3.org/2000/svg" viewBox="0 0 91.87 47.13"><path d="M547.37,329.45c3.71-1.13,10.17-3.37,22.3-6.52,2.07-.54,3.27-1.49,3.4-3.61.25-3.87.91-12.34,1.39-14.77a2.1,2.1,0,0,1,2.18-1.49c1,.05,2.62.09,2.77,1.66a41.89,41.89,0,0,1-.61,7.1c-.35,2.88-.89,6.68-.94,8.6,0,.43.49.21.95.09,1.64-.41,5.91-1.48,7.26-1.68.28-.05.54-.55.57-.87.25-2.76.47-10.2,2-12.82a2.58,2.58,0,0,1,3.76-.64c1.13,1-.09,4.65-.36,6.63a31.35,31.35,0,0,0-.51,6.05c.07.28.27.32,1.07.17,3.5-.66,12.54-2.19,16.73-2.71s4.35-.89,6.28-2.06c1.61-1,3.92-.32,3.92,1.53s-1,3.87-2.62,3.76a25,25,0,0,0-5.35-.25c-7.46.27-19.22,3-19.73,3.16s-.44.69-.45,1.1c-.14,13.85,1.1,18.07,1.33,20.21a2.94,2.94,0,0,1-2.62,3.15,1.9,1.9,0,0,1-2.25-1.4,15.06,15.06,0,0,1-.65-4.08,171.51,171.51,0,0,1-.5-17.5c0-.18,0-.58-.63-.53a46.23,46.23,0,0,0-7.24,1.9c-1.37.54-1.55,2.56-1.6,3.29-.24,3.89-.26,4.31.07,13.48.16,4.41.62,6.6.91,7.37a1.73,1.73,0,0,1-1.35,2.34c-1.38.39-2.21-.76-2.75-2.52a23.53,23.53,0,0,1-.9-5.23c-.25-3.12-.31-6.86-.46-10.29,0-.53-.05-2.24,0-3.18a67.36,67.36,0,0,1-5.58,10.28c-4.09,5.66-9,9.33-13,10.19a8.62,8.62,0,0,1-8.73-2.78c-2.07-2.38-3-5.67-3.51-10.38-.12-1.05-.28-.85-1.14-.61s-3.38,1.18-5,1.85c-1,.42-4.33,1.76-6.2,2.4-1.19.4-1.92-.49-1.86-1.93.07-1.6,1.18-2.3,2.41-2.74,3.3-1.17,6.58-2.14,9.88-3.32.59-.21,1.17-.41,1.76-.65a1.06,1.06,0,0,0,.69-.81,84.73,84.73,0,0,1,2.53-9,40.41,40.41,0,0,1,2.12-4.81,16.06,16.06,0,0,1,6.16-6.76c2.12-1.33,7.54-3.2,11,.82,1.86,2.13,2.09,5,2.52,7.12a1.73,1.73,0,0,1-1.2,2.07c-1,.5-1.69.6-2.11-.43-.59-1.46-.41-2.14-1-4.36-.86-3.15-4.87-3.63-7-2.35s-3.14,2.26-5,5.56a33.12,33.12,0,0,0-3.88,11C546.45,329.86,547.05,329.55,547.37,329.45Zm.33,3.8c-1.78.68-1.76.93-1.61,3,.47,6.3,1.86,7.29,3.14,8.29,2.52,2,8.35.52,12-2.91a33.74,33.74,0,0,0,8.81-13c.26-.64.5-1.29.74-1.91.08-.23.22-.62-.49-.47A192.1,192.1,0,0,0,547.7,333.25Z" transform="translate(-527.63 -303.06)"/></svg>
